<svg width="238" height="245" viewBox="0 0 238 245" fill="none" xmlns="http://www.w3.org/2000/svg">
<mask id="mask0_624_2247" style="mask-type:luminance" maskUnits="userSpaceOnUse" x="0" y="0" width="238" height="245">
<path d="M0.614746 0.864502H237.615V244.333H0.614746V0.864502Z" fill="white"/>
</mask>
<g mask="url(#mask0_624_2247)">
<path fill-rule="evenodd" clip-rule="evenodd" d="M118.995 0.864502C53.7344 0.864502 0.828125 53.7655 0.828125 119.031C0.828125 150.917 13.4635 179.844 33.9896 201.104C32.5677 225.062 37.724 240.208 49.1823 243.474C59.1667 244.948 67.4375 242.417 79.9062 230.568C92.1406 234.854 105.292 237.193 118.995 237.193C184.255 237.193 237.161 184.292 237.161 119.031C237.161 53.7655 184.255 0.864502 118.995 0.864502ZM109.578 190.266C81.276 223.755 61.7188 240.016 50.901 239.057C40.4479 233.167 36.6354 220.307 39.6771 198.844C43.7031 196.979 48.1823 196.307 53.125 196.818L47.8542 202.088C63.5885 196 80.2917 187.578 97.9583 176.828C100.849 173.031 104.234 165.156 108.125 153.198L124.198 141.38C126.818 140.026 128.844 143.781 128.651 146.057L120.776 153.307C119.938 155.213 120.276 155.958 121.792 155.531L130.87 147.724C133.193 148.542 134.104 150.151 133.604 152.547L124.578 160.755C124.042 162.083 124.609 162.401 126.026 162.297L134.984 155.917C137.385 157.135 137.839 158.088 136.792 160.213L129.422 166.682C128.656 168.01 129.625 168.432 131.141 168.312L138.422 163.198C141 163.651 140.76 165.766 139.917 167.948L128.417 178.427C122.104 186.578 116 189.354 109.578 190.266ZM35.7604 192.667C40.7552 175.312 57.3281 143.995 64.9948 133.37C76.8229 122.359 82.9271 156.062 70.5104 188.932C67.9896 189.359 59.0156 193.172 59.0156 193.172C52.099 190.604 41.6198 191.219 35.7604 192.667ZM56.0573 97.2187C49.7448 97.5937 47.7448 94.7708 50.0469 88.7499L82.4323 69.1458L80.1927 74.9843L56.0625 89.0208C53.1406 91.9426 53.1406 94.677 56.0573 97.2187ZM71.3646 96.1301L73.8281 100.505L63.5938 106.391L61.3229 102.932L71.3646 96.1301ZM70.8646 105.875L76.974 115.547C78.401 116.167 79.7083 116.016 80.9062 115.094C79.7083 118.021 77.8854 118.896 75.4375 117.724L68.5104 106.974L70.8646 105.875ZM76.2812 85.1874L83.3906 80.8176C82.7448 84.3697 83.3854 88.4687 85.3073 93.1197L118.839 142.453C117.818 143.104 116.844 143.74 115.911 144.38L82.3073 94.7603L76.2812 85.1874ZM135.193 59.1978C134.125 50.0989 126.594 46.526 112.599 48.4843C127.469 37.651 140.432 39.8228 151.495 55.0051L135.193 59.1978ZM154.057 56.8697H171.057C161.688 65.1249 149.578 67.3749 134.724 63.6249L154.057 56.8697ZM125.714 77.0624L131.646 76.2812C131.021 74.4947 133.047 70.8801 133.865 67.1093C136.198 67.3489 139.396 67.677 143.448 68.0885L143.167 71.1978L147.193 75.2239C150.443 80.828 148.276 82.276 148.974 86.8228L150.104 92.8697C154.568 97.3072 150.766 99.901 148.698 100.161C138.927 102.745 130.156 100.068 126.776 93.8072C125.823 100.068 130.365 103.12 134.839 107.62C135.469 116.516 134.141 124.297 131.578 127.083C126.964 128.026 120.359 128.474 114.422 127.536L106.182 115.698L111.583 93.8072L115.365 91.578C118.927 92.8437 122.75 92.1145 123.88 89.9218C108.901 90.9791 110.734 59.3958 125.714 77.0624ZM134.979 132.104L130.385 142.062C128.974 138.463 124.479 138.115 122.297 139.922L117.229 132.005L134.979 132.104ZM106.036 149.724L104.432 156.042H95.125L93.8958 131.26L106.036 149.724ZM140.26 192.359C142.453 188.917 142.453 184.906 140.26 180.333L137.109 175.682C138.026 174.979 138.859 174.172 139.901 173.448L142.724 177.604C146.057 184.588 145.234 189.505 140.26 192.359ZM158.214 155.88L139.589 155.891C138.964 153.516 137.964 153.005 135.891 152.224C135.766 149.448 134.859 146.042 131.891 145.099C134.604 139.995 139.958 129.599 146.432 117.396C147.688 117.422 148.708 118.443 149.484 120.448L151.578 139.448C146.995 137.661 145.974 136.026 142.38 136.667C138.693 138.099 134.542 143.766 134.542 143.766L141.969 140.963C144.281 140.219 149.536 142.802 155.062 145.838L151.776 121.302C153.359 122.005 155.781 122.833 158.552 123.766L158.214 155.88ZM177.182 204.755C181.464 205.495 186.458 204.656 190.771 203.453C186.417 206.719 181.63 209.844 177.182 212.74V204.755ZM194.87 200.208C187.75 200.906 182.245 201.333 177.182 200.365V135.922C189.411 140.318 197.984 167.094 203.979 189.927C202.13 193.417 198.839 196.87 194.87 200.208ZM207.646 183.87C201.042 163.24 196.078 148.245 182.672 133.875C177.031 128.219 167.667 124.781 151.781 118.667C150.786 115.651 149.318 113.391 146.422 112.87L146.344 106.385L156.698 103.865C158.781 103.135 162.083 101.542 161.828 97.5989C161.776 96.7708 161.365 95.5468 159.896 93.5728C160.057 92.4635 162.25 92.8437 162.365 90.8333C162.542 89.5624 161.974 88.5989 160.667 87.9478L162.688 86.1718L161.37 82.0208L166.385 79.3905C167.766 78.4895 168.208 77.3385 167.708 75.9374L161.422 70.5937C169.932 67.1562 179.339 57.6353 175.318 54.9947C174.667 54.5624 155.698 54.802 155.698 54.802C148.646 40.6093 136.844 35.7864 120.292 40.3385C102.25 47.9426 95.1198 60.578 100.583 77.7083C101.703 82.2447 103.906 87.026 107.193 92.052C106.385 100.37 104.531 106.411 102.026 111.297L90.1354 93.1718C88.3229 86.6718 87.7188 80.2135 88.3177 73.8072L83.5938 65.1458L61.8802 77.026L57.4792 70.8228L78.8854 58.0833L77.4375 53.0208C72.7396 48.8541 68.6615 48.3176 63.474 49.3489L43.3021 61.7291C38.1979 65.5937 39.1615 70.3697 40.5729 74.0572L48.349 85.1405C39.8281 94.9114 49.0938 102.687 57.125 99.953L59.9792 98.6614L60.9271 100.453L58.9427 102.437C57.4531 106.094 60.5781 110.745 63.5938 109.703L66.6042 108.271C67.5365 109.76 69.7448 113.448 73.3385 119.187C76.1458 122.495 83.7292 120.354 83.5 114.615L86.6771 118.969C78.401 121.969 70.5104 123.875 64.8281 128.375C58.3021 132.854 33.7344 183.594 32.7969 188.797C16.8021 169.109 8.10938 144.74 8.10938 119.031C8.10938 89.4114 19.6406 61.5624 40.5833 40.6197C61.5313 19.677 89.375 8.14054 118.995 8.14054C148.615 8.14054 176.458 19.677 197.406 40.6197C218.349 61.5624 229.88 89.4114 229.88 119.031C229.88 143.141 222.234 166.078 208.094 185.073L207.646 183.87Z" fill="white"/>
</g>
</svg>
