<svg width="267" height="715" viewBox="0 0 267 715" fill="none" xmlns="http://www.w3.org/2000/svg">
<path d="M95.5 247.222V195H39M149.5 247V156.5H75.5V20H149.5M199 267V130.5M75.5 389.5V450.5H20V503.5M128.5 410.5V590H75.5V642.5M199 383.5V459H266V559.5H212" stroke="#DFCF8E" stroke-opacity="0.6" stroke-linecap="round" stroke-dasharray="2 5"/>
<path fill-rule="evenodd" clip-rule="evenodd" d="M162.475 10.0036L162.447 10.0017C161.13 9.94046 159.272 11.5238 158.585 12.6691C157.832 13.6981 157.817 15.0647 158.475 16.6455L158.579 16.8842C160.313 21.1537 166.818 27.6509 171.071 29.4297C172.698 30.191 174.148 30.2049 175.291 29.3821C176.296 28.8078 177.943 26.8968 177.895 25.5396C177.85 24.9812 177.591 24.5254 177.188 24.1104L177.089 24.0127L176.815 23.7594C175.823 22.8725 174.106 21.6098 173.575 21.4982C172.951 21.3682 172.529 21.4846 171.862 21.8523L171.613 21.9936C171.139 22.2671 170.969 22.3139 170.745 22.2319C168.372 21.2578 166.698 19.5761 165.718 17.1639C165.654 16.9852 165.686 16.8291 165.892 16.4507L166.001 16.2577C166.45 15.4726 166.601 15.0287 166.459 14.3452L166.434 14.2566C166.202 13.5804 164.778 11.6725 163.988 10.842L163.861 10.7131C163.449 10.3086 162.996 10.0484 162.475 10.0036ZM162.365 11.4639L162.419 11.4743C162.514 11.5011 162.626 11.5668 162.752 11.6751L162.844 11.759L163.017 11.9414C163.689 12.6834 164.991 14.4333 165.034 14.6425C165.075 14.839 165.03 15.0031 164.817 15.39L164.705 15.5873C164.235 16.4096 164.09 16.9398 164.36 17.6896C165.499 20.4935 167.46 22.4639 170.221 23.597C170.934 23.8574 171.438 23.7533 172.154 23.3656L172.399 23.2272C172.884 22.9465 173.062 22.8856 173.278 22.9307C173.49 22.9751 175.381 24.3948 176.075 25.062L176.156 25.1425C176.335 25.3267 176.432 25.4984 176.443 25.6258C176.452 25.9235 176.154 26.4829 175.628 27.0934C175.253 27.528 174.767 27.9724 174.556 28.1197L174.505 28.1523C173.824 28.6388 172.982 28.6597 171.869 28.1854L171.657 28.0907C167.812 26.4817 161.765 20.4879 160.019 16.548L159.915 16.3045C159.374 15.1075 159.329 14.2324 159.718 13.5957L159.795 13.4791C160.246 12.7334 161.603 11.5588 162.279 11.4684L162.365 11.4639ZM170.422 10.2437L170.52 10.248C174.45 10.6867 177.554 13.803 177.995 17.7534C178.04 18.155 177.753 18.5171 177.353 18.5622C176.954 18.6074 176.594 18.3184 176.549 17.9169C176.183 14.6459 173.614 12.0656 170.36 11.7024C169.96 11.6578 169.673 11.2961 169.717 10.8945C169.754 10.5598 170.01 10.3031 170.325 10.2526L170.422 10.2437ZM170.481 13.701L170.579 13.7134C172.588 14.107 174.157 15.6848 174.549 17.704C174.626 18.1006 174.368 18.4848 173.974 18.5621C173.579 18.6394 173.197 18.3806 173.12 17.984C172.842 16.5497 171.728 15.4293 170.301 15.1497C169.907 15.0724 169.649 14.6882 169.726 14.2916C169.79 13.9611 170.066 13.7263 170.385 13.7019L170.481 13.701Z" fill="#DFCF8E"/>
<circle cx="167.5" cy="19.5" r="18.5" stroke="#DFCF8E" stroke-linecap="round" stroke-dasharray="2 5"/>
<circle cx="198.5" cy="111.5" r="18.5" stroke="#DFCF8E" stroke-linecap="round" stroke-dasharray="2 5"/>
<path fill-rule="evenodd" clip-rule="evenodd" d="M189.776 102.5L189.878 102.511L191.958 102.871C192.257 102.923 192.491 103.148 192.56 103.436L192.577 103.547L192.812 106.349H206.909C208.132 106.349 209.082 107.39 208.995 108.589L208.978 108.739L208.029 115.298C207.854 116.5 206.863 117.404 205.666 117.481L205.502 117.486H194.59C193.317 117.486 192.248 116.552 192.064 115.309L192.046 115.146L191.131 104.25L189.622 103.989C189.248 103.924 188.987 103.593 189 103.224L189.011 103.122C189.076 102.748 189.407 102.487 189.776 102.5ZM192.908 120.585C192.908 119.749 193.586 119.07 194.422 119.07C195.258 119.07 195.937 119.749 195.937 120.585C195.937 121.422 195.258 122.099 194.422 122.099C193.586 122.099 192.908 121.421 192.908 120.585ZM204.16 120.585C204.16 119.749 204.838 119.07 205.675 119.07C206.511 119.07 207.19 119.749 207.19 120.585C207.19 121.422 206.511 122.099 205.675 122.099C204.839 122.099 204.16 121.422 204.16 120.585Z" fill="#DFCF8E"/>
<circle cx="19.5" cy="194.5" r="18.5" stroke="#DFCF8E" stroke-linecap="round" stroke-dasharray="2 5"/>
<path fill-rule="evenodd" clip-rule="evenodd" d="M28.3395 190.659C29.0095 191.178 29.4205 191.949 29.4905 192.788L29.5005 192.989V201.098C29.5005 203.188 27.8495 204.888 25.7805 204.998H23.7905C22.8395 204.979 22.0705 204.239 22.0005 203.309L21.9905 203.168V200.309C21.9905 199.998 21.7595 199.739 21.4505 199.688L21.3605 199.678H18.6895C18.3705 199.688 18.1105 199.918 18.0705 200.218L18.0605 200.309V203.159C18.0605 203.218 18.0495 203.288 18.0405 203.338L18.0305 203.359L18.0195 203.428C17.9005 204.279 17.2005 204.928 16.3305 204.989L16.2005 204.998H14.4105C12.3205 204.998 10.6105 203.359 10.5005 201.298V192.989C10.5095 192.138 10.8805 191.348 11.5005 190.798L17.7305 185.788C19.0005 184.779 20.7805 184.739 22.0895 185.668L22.2505 185.788L28.3395 190.659ZM28.0995 201.258L28.1105 201.098V192.998C28.0995 192.569 27.9205 192.168 27.6105 191.869L27.4805 191.758L21.3805 186.878C20.6205 186.268 19.5405 186.239 18.7405 186.768L18.5895 186.878L12.5095 191.779C12.1605 192.038 11.9505 192.428 11.9005 192.838L11.8895 192.998V201.098C11.8895 202.428 12.9295 203.518 14.2505 203.598H16.2005C16.4205 203.598 16.6105 203.449 16.6395 203.239L16.6605 203.059L16.6705 203.008V200.309C16.6705 199.239 17.4905 198.369 18.5405 198.288H21.3605C22.4295 198.288 23.2995 199.109 23.3805 200.159V203.168C23.3805 203.378 23.5305 203.559 23.7305 203.598H25.5895C26.9295 203.598 28.0195 202.569 28.0995 201.258Z" fill="#DFCF8E"/>
<circle cx="20.5" cy="522.5" r="18.5" stroke="#DFCF8E" stroke-linecap="round" stroke-dasharray="2 5"/>
<path fill-rule="evenodd" clip-rule="evenodd" d="M20.5717 515.995L20.375 515.854C19.0709 514.963 17.4337 514.723 15.9319 515.206C13.0878 516.122 11.7984 519.278 12.7924 522.366C13.3391 523.942 14.2354 525.369 15.4062 526.534C17.1541 528.232 19.0808 529.731 21.1444 531L21.0016 530.91L21.4695 530.615C23.1029 529.561 24.6414 528.364 26.064 527.042L26.592 526.54C27.769 525.369 28.6653 523.942 29.2068 522.382C30.205 519.281 28.91 516.123 26.0644 515.207C24.4876 514.701 22.7664 514.99 21.4363 515.986C21.181 516.177 20.8311 516.181 20.5717 515.995Z" fill="#DFCF8E"/>
<circle cx="75.5" cy="661.5" r="18.5" stroke="#DFCF8E" stroke-linecap="round" stroke-dasharray="2 5"/>
<path fill-rule="evenodd" clip-rule="evenodd" d="M76.0288 652C71.4198 651.984 67.6551 655.651 67.5046 660.241L67.5 660.526C67.5766 662.776 68.3421 664.921 69.6903 666.688L70.0069 667.101C71.2938 668.737 72.8231 670.173 74.5403 671.357L74.9537 671.635L75.014 671.683C75.6026 672.106 76.3973 672.106 76.9858 671.683L77.036 671.642C78.3986 670.758 79.655 669.72 80.7805 668.547C83.0686 666.125 84.4477 663.411 84.4998 660.655L84.4999 660.553C84.5155 655.932 80.8598 652.156 76.284 652.005L76.0288 652ZM76.0236 653.518C79.8021 653.53 82.8699 656.55 82.9839 660.309L82.9871 660.641C82.9433 662.952 81.7334 665.333 79.6866 667.499C78.6429 668.586 77.4727 669.553 76.2035 670.375L76.1189 670.438C76.0506 670.497 75.9492 670.497 75.8808 670.438L75.7986 670.376C73.9079 669.142 72.2485 667.583 70.8963 665.772C69.8071 664.344 69.1617 662.638 69.0318 660.857L69.0127 660.5C69.0255 656.712 72.0353 653.635 75.7834 653.521L76.0236 653.518ZM72.7618 660.649C72.7618 658.856 74.2115 657.401 75.9999 657.401C77.7883 657.401 79.2381 658.856 79.2381 660.649C79.2381 662.443 77.7883 663.898 75.9999 663.898C74.2115 663.898 72.7618 662.443 72.7618 660.649Z" fill="#DFCF8E"/>
<circle cx="192.5" cy="559.5" r="18.5" stroke="#DFCF8E" stroke-linecap="round" stroke-dasharray="2 5"/>
<path fill-rule="evenodd" clip-rule="evenodd" d="M189.19 550C189.541 550 189.831 550.262 189.876 550.603L189.883 550.698V551H195.955V550.698C195.955 550.312 196.265 550 196.647 550C196.998 550 197.287 550.262 197.333 550.603L197.34 550.698V551.012C200.233 551.176 202.009 553.02 202 556.017V564.505C202 567.65 200.045 569.531 196.904 569.531H189.096C185.958 569.531 184 567.618 184 564.435V556.017C184 553.081 185.712 551.25 188.498 551.024V550.698C188.498 550.312 188.808 550 189.19 550Z" fill="#DFCF8E"/>
</svg>
